<?xml version="1.0" encoding="utf-8"?>
<!DOCTYPE svg PUBLIC "-//W3C//DTD SVG 1.1//EN" "http://www.w3.org/Graphics/SVG/1.1/DTD/svg11.dtd">
<svg version="1.1" xmlns="http://www.w3.org/2000/svg" xmlns:xlink="http://www.w3.org/1999/xlink" x="0px" y="0px"
     width="75px" height="75px" viewBox="0 0 100 100" enable-background="new 0 0 100 100" xml:space="preserve">
    <path fill="#FAFAFA" d="M45.596,29.179c0,5.636-4.566,10.207-10.207,10.207c-5.636,0-10.207-4.571-10.207-10.207 c0-5.64,4.571-10.211,10.207-10.211C41.029,18.968,45.596,23.539,45.596,29.179z"/>
    <path fill="#FAFAFA" d="M27.706,14.613c-8.487,3.439-15.827,23.625,7.111,27.069c22.938,3.44,29.361,25.461,29.361,25.461 S46.516,49.481,24.262,51.545C2.012,53.609,11.879,14.841,27.706,14.613z"/>
    <path fill="#EF5350" d="M63.084,45.847c-3.506,4.421-2.76,10.841,1.658,14.342c4.422,3.502,10.841,2.756,14.343-1.661 c3.502-4.418,2.756-10.841-1.662-14.339C73.005,40.684,66.582,41.43,63.084,45.847z"/>
    <path fill="#EF5350" d="M86.15,45.544c4.518,7.969-2.263,28.35-22.382,16.796c-20.12-11.546-38.827,1.724-38.827,1.724 S49.757,61.188,65.91,76.63C82.072,92.066,98.417,55.553,86.15,45.544z"/>
</svg>